<?xml version="1.0" encoding="utf-8"?>
<!-- Generator: Adobe Illustrator 19.1.0, SVG Export Plug-In . SVG Version: 6.00 Build 0)  -->
<svg version="1.1" id="Layer_1" xmlns="http://www.w3.org/2000/svg" xmlns:xlink="http://www.w3.org/1999/xlink" x="0px" y="0px"
	 viewBox="0 0 340.6 60" enable-background="new 0 0 340.6 60" xml:space="preserve">
<path fill="#231F20" d="M333.5,43.4c-3.4,0-4.9-1.4-4.9-4.6V21.5l12-6.3l-3.2-6l-8.8,4.6V1.4h-7.2v16.2l-7.2,3.8
	c-3.1-6.6-9.2-10.3-16.6-10c-4.7,0.2-9.1,2.3-12.3,5.8c-3.5,3.9-5.2,9.1-4.9,14.7c0.1,2.3,0.6,4.5,1.4,6.5l-7,3.7V27.2
	c0-9.5-6.3-15.8-15.7-15.8c-4.1,0-7.6,1.2-10.4,3.6v-2.8h-7.2v30.7h-23.1v6.9h30.3V28.4c0-5.8,4.2-10.1,10-10.1c5.7,0,9,3.5,9,9.5
	v22h7.2l0,0l10.5-5.5c3.4,3.9,8.3,6.2,13.9,6.2c0.3,0,0.7,0,1,0c8-0.4,12.4-4.4,15.3-7.8l1.3-1.6l-5.5-4.3l-1.2,1.4
	c-2.9,3.3-6.1,5-10.1,5.2c-0.6,0-1.2,0-1.9-0.1l-0.4,0c-2.1-0.2-4-1.1-5.7-2.7l29.4-15.5v13.9c0,6.9,4.4,11.2,11.6,11.2
	c2.3,0,4.3-0.4,6.4-1.4l1.2-0.5v-7.3l-2.8,1.2C336.1,43.2,334.9,43.4,333.5,43.4z M288.3,35c-0.4-1.2-0.6-2.4-0.7-3.7
	c-0.2-3.8,1-7.4,3.3-9.9c1.8-2,4.2-3.2,6.7-3.3c1.3-0.1,2.5,0.1,3.9,0.7c2.8,0.9,4.9,3,6.2,6.1L288.3,35z"/>
<path fill="#FFFFFF" d="M44.3,18.7v-0.1c0-4.8-1.5-8.3-4.3-11.2C36.7,4.1,31.3,2,23,2H0v47.1h15.7V35.7H19h0.1L28,49.1h18l-11-16
	C40.7,30.3,44.3,25.6,44.3,18.7z M28.6,19.8c0,2.9-2.3,4.6-6.1,4.6h-6.8v-9.2h6.9c3.6,0,6,1.5,6,4.5V19.8z"/>
<path fill="#FFFFFF" d="M64.3,11.5c-11,0-18.9,8.3-18.9,19.3v0.1c0,11.4,8.1,19,20.2,19c7.9,0,13.1-3.3,16.7-8l-8.2-6.5
	c-2.4,2.5-4.7,3.8-7.5,3.8c-3.3,0-5.9-1.7-6.9-4.9h23.6c0.1-0.8,0.1-1.7,0.1-2.6C83.4,20.6,77.3,11.5,64.3,11.5z M59.5,27.6
	c0.5-3.4,2.3-5.5,4.8-5.5c2.7,0,4.8,2,5.1,5.5H59.5z"/>
<path fill="#FFFFFF" d="M113.3,16.3c-2.7-2.8-5.9-4.8-11.2-4.8c-8.5,0-15.5,6.8-15.5,17.1v0.1c0,10.2,6.9,16.9,16.3,16.9
	c5.1,0,8.5-2.7,10.6-5v1.1c0,5.1-3,8.1-8.7,8.1c-5,0-9.1-1.3-13.3-3.5l-4.7,9.2c5.9,3,12.2,4.6,20.4,4.6c8.2,0,13.3-2.1,16.5-5.4
	c3.4-3.4,4.8-8,4.8-14.8V12.4h-15.3V16.3z M113.6,28.7c0,3.2-2.4,5.8-6.1,5.8c-3.7,0-6.1-2.5-6.1-5.6v-0.1c0-3.2,2.4-5.9,6.1-5.9
	c3.7,0,6.1,2.6,6.1,5.7V28.7z"/>
<path fill="#FFFFFF" d="M158.4,16.3c-2.7-2.8-5.9-4.8-11.2-4.8c-8.5,0-15.5,6.8-15.5,17.1v0.1c0,10.2,6.9,16.9,16.3,16.9
	c5.1,0,8.5-2.7,10.6-5v1.1c0,5.1-3,8.1-8.7,8.1c-5,0-9.1-1.3-13.2-3.5l-4.7,9.2c5.9,3,12.2,4.6,20.4,4.6c8.2,0,13.3-2.1,16.5-5.4
	c3.4-3.4,4.8-8,4.8-14.8V12.4h-15.3V16.3z M158.7,28.7c0,3.2-2.4,5.8-6.1,5.8c-3.7,0-6.1-2.5-6.1-5.6v-0.1c0-3.2,2.4-5.9,6.1-5.9
	c3.7,0,6.1,2.6,6.1,5.7V28.7z"/>
<rect x="177.9" y="12.4" fill="#FFFFFF" width="15.3" height="36.7"/>
<rect x="177.7" fill="#FFFFFF" width="15.8" height="9.8"/>
<path fill="#FFFFFF" d="M235.2,31.7c0-11.2-6.1-20.2-19.1-20.2c-11,0-18.9,8.3-18.9,19.3v0.1c0,11.4,8.1,19,20.2,19
	c7.9,0,13.1-3.3,16.7-8l-8.2-6.5c-2.4,2.5-4.7,3.8-7.5,3.8c-3.3,0-5.9-1.7-6.9-4.9h23.6C235.2,33.5,235.2,32.6,235.2,31.7z
	 M211.3,27.6c0.5-3.4,2.3-5.5,4.8-5.5c2.7,0,4.8,2,5.1,5.5H211.3z"/>
</svg>
