<?xml version="1.0" encoding="utf-8"?>
<!-- Generator: Adobe Illustrator 19.2.0, SVG Export Plug-In . SVG Version: 6.00 Build 0)  -->
<svg version="1.1" id="Layer_1" xmlns="http://www.w3.org/2000/svg" xmlns:xlink="http://www.w3.org/1999/xlink" x="0px" y="0px"
	 viewBox="0 0 512 512" style="enable-background:new 0 0 512 512;" xml:space="preserve">
<style type="text/css">
	.st0{fill:#FFFFFF;}
</style>
<path class="st0" d="M437,113.5c-0.8-0.9-3.9-5.1-4.5-6.1L380.3,122c0.9,1.1,4.1,4.7,5,5.8s2.7,4,3.5,5.2c4.9-1.7,9.2-2.9,14.9-4.5
	l6.5,8.4c-3.5,5.2-5.3,8.3-8.4,13.2c1.7,1.9,5,5.4,6.5,7.4c1.5,2.1,3.6,5.3,5.1,7.6l28.4-45.4C441.2,118.8,437.6,114.4,437,113.5z
	 M414.6,132.2l-5-6.5l13-4.2L414.6,132.2z M158.5,412.5L131.3,454c2.5,1.5,5.1,3.1,7.5,4.7s4.7,3.2,7.1,4.9l27.3-41.6
	c-2.5-1.4-4.7-2.7-7.1-4.4C163.6,416,160.9,414.2,158.5,412.5z M151.5,407c0,0-3.7-2.9-4.4-3.6c-0.7-0.8-4.1-4.4-4.7-5.1l-17.3,18
	c0.7-15.5,1-18.2,1.3-33.4l-8.5-8.2c-6,7.2-10,11.3-15.4,16.9c-5,5.2-10.2,11.1-19,18.7c0,0,4.6,3.5,5.2,4.1
	c0.7,0.7,3.9,3.5,4.6,4.1l16.9-18.3l-0.8,10.7c-0.3,7.4-0.1,14.7-0.4,23l8,8.8c6.6-7.7,11.4-12.9,16-17.6
	C138.3,419.5,144.8,413.1,151.5,407z M113.9,370.4c-0.7-0.9-2.5-4-3.1-4.9c-0.4-0.9-3.1-5.3-3.5-6.3l-18.6,11.4
	c-3.2,1.7-9.4,5.7-13.2,7.2c-3.5,1-7.6,1.3-10.6-3.8c-1.3-2.3-1.3-3.5-1-5.6c0.7-3.7,2.4-4.7,5.1-7.1c2.8-2.5,8.1-5.3,11.5-7.3
	l18-9.9c-1.1-1.6-3.4-5.6-4.4-7.3s-3.3-5.8-4.1-7.5l-25.6,14.8c-2.5,1.4-5.1,3.4-7.1,5.6c-6.6,7.3-5.1,15.8,0.8,26
	c2.6,4.5,6.4,8.6,11,10.9c8.7,4.6,15.1,0.7,22.3-3.4L113.9,370.4z M296,35.5c4,0.7,5.6,3.7,6.4,7.7l3.4,0.5c1.1-2.3,3.2-5.9,4.4-8.1
	c-1.4-1.7-9.3-5.9-14.4-6.6c-10.9-1.7-19.7,3.9-21,12.1C272,58.4,295,57.3,292.1,68.5c-0.9,3.2-3.2,5.2-7.6,4.6
	c-3.5-0.4-6.6-2.9-6.2-8.2l-5-0.8c-0.5,3.3-1.7,6.8-2.9,9.7c-0.1,0.2,5.4,2.9,9.7,4.4c12.9,4.5,24.7-0.8,27-9.7
	c4.4-16.8-16-17.9-17.5-26C288.9,39.4,291,34.7,296,35.5z M250.3,26.3c-2.8,0.1-5.8,0.2-8.7,0.1l1.4,49.7c2.9-0.2,5.8-0.5,8.7-0.7
	c2.8-0.1,5.8,0,8.7,0.1L259,25.8C256.1,26.1,253.3,26.2,250.3,26.3z M412.2,96.8c0.5-0.9,2-2.6,2.6-3.5c0.7-0.9,2.1-2.4,2.8-3.1
	l-32-26.5c-0.5,0.9-1.7,2.7-2.4,3.5c-1.2,1.3-2.3,2.4-3.1,3.1c4.6,3.2,5,2.8,10.8,7.6L364,110.4c2.1,1.5,4.2,3.1,6.3,4.8
	c2.1,1.7,3.9,3.6,6,5.4L403.2,88C408.2,92.2,407.8,92.5,412.2,96.8z M212.1,435.2c-8.3,10.6-9.7,12.7-18.1,22.4
	c-0.3-12.6-0.3-14.9-0.1-28c-2.1-0.5-6.9-2-8.8-2.6c-2-0.7-7.5-2.6-9.5-3.4c0.8,18.3,2.1,35.4,3.1,53.3c1.1,0.2,4.6,1.5,5.7,1.9
	c1,0.3,4.7,1.5,4.7,1.5c12.7-14.7,23.1-27.7,35-41.3c-1.5-0.2-4.5-1.3-5.6-1.6C217.4,437.1,213.9,435.9,212.1,435.2z M353.8,61.7
	c0.5-3.1,4.1-6.8,8.5-4.4c3.6,2.1,3.9,5.4,3.4,9.5l2.9,1.6c1.9-1.9,5-4.5,6.9-6.1c-0.7-2.1-6.6-8.6-11.2-11.1
	c-9.6-5.3-19.8-3.2-23.9,4.1c-8.4,15.3,13.5,22.2,6.9,31.7c-1.9,2.6-4.8,3.8-8.7,1.6c-3.1-1.6-5.1-5.1-2.9-9.8l-4.5-2.4
	c-1.6,3.1-3.9,5.9-6.1,8.2c-0.2,0.3,4.1,4.7,7.6,7.5c10.5,8.6,23.4,7.7,28.5,0C371.2,78,352.5,69.9,353.8,61.7z M197.5,32.9
	C180.1,38.2,173.3,51,178,66.1c4.9,15.7,17.2,21.8,34.9,16.3c17.4-5.4,24.4-17.4,19.5-33.3C227.7,34.2,214.9,27.5,197.5,32.9z
	 M211.1,77.4c-8,2.4-13.6-1.4-18.2-16c-4.6-14.9-1.9-21.2,6-23.6c8-2.4,13.6,1.1,18.2,16C221.7,68.5,219.3,74.9,211.1,77.4z
	 M402.1,379.1c-0.9-0.7-2.2-2.2-2.9-2.9c-0.7-0.8-2.3-2.4-2.8-3.3L366,401.4c0.9,0.7,2.4,2.1,3.1,2.8c0.8,0.8,2.2,2.5,2.7,3.4
	c3.7-4.1,3.5-4.6,8.9-9.8l29,30.7c1.9-1.9,3.6-3.8,5.6-5.7c2-1.9,4-3.6,6-5.2l-29-30.7C397.1,382.5,397.2,383,402.1,379.1z
	 M496.6,251.1c0,0-22.6,0.9-31.7,0c0.2,1.9,0.1,3.5,0.2,5.2c0.2,3.5-1.1,7,0.3,6.5c9.3-0.8,13.7-1.2,22.6-0.7c0.2,0,0.2,0.3,0.1,0.5
	c0,0-23.1,40.2-25.1,42.8v0.1c8-1.1,14.7-0.2,14.7-0.2c1.9-7.3,8-28.2,20.2-47.9L496.6,251.1z M446.6,271.8c-2.7,0-6.9,0.3-9.3,1.6
	l-0.5-0.2l0.4-10.8c0,0,11.8-1.4,21.2,0.3c1.5,0.4,0.4-4.2,0.4-5.9s0.5-6-0.3-5.9c-12.2,1.6-28.4,0.4-29.7,0.4
	c-0.9,0.2,1.3,8,0.3,27.8l3.9,2.7c1.9-1.9,4.2-3.8,8.1-3.8c3.5,0,5.2,1,6.9,2.9c1.7,2.3,1.6,5.6,1.6,8.4c0,6.3-2.5,12.2-8.7,12.2
	c-5,0-5.7-4.7-5.9-9.7h-9.7c-0.1,3,0.4,5.5,2.6,9c2.7,4.4,9.3,5.5,13.1,5.5c6.2,0,10.8-1.3,14.7-4.2c4.4-3.2,6.4-8.3,6.5-13.9
	c0-4.6-1.2-8.4-4.7-12C454.3,273,449.5,271.8,446.6,271.8z M74,275.1v-0.5c5-1.5,8.9-4.9,8.9-10.8c0-4.4-1.9-9.5-5.4-11.9
	c-3.7-2.5-7.5-2.9-12-2.9c-8.2,0-16.9,6.1-16.9,15.6c0,5.3,3.4,9.2,9.4,10.1v0.5c-7,1.2-11.4,8.7-11.4,15.4c0,4.5,1.8,9.2,5.5,11.9
	c3.8,2.7,8.7,3.7,13.4,3.7c10.6,0,19.3-6.3,19.2-16.8C84.7,282.7,82,275.7,74,275.1z M65.6,254.9c4.6,0,5.1,5.2,5.1,9
	c0,3.6-0.7,8.5-5.1,8.5c-4.5,0-5.1-4.9-5.1-8.5C60.4,260,61,254.9,65.6,254.9z M65.4,300.2c-5.1,0-5.4-6.2-5.4-10.1
	c0-3.4-0.1-9.7,3.3-11.2c2.5-1.3,5.1-0.5,6.6,1.9c1.2,2,1.2,7.1,1.2,9.5C71.1,294,70.2,300.2,65.4,300.2z M408.4,354.9
	c0,0-2,3.8-4.4,7.4c-2.9,4.5-6.8,9.2-6.8,9.2c11.9,0.8,22.2,1,33.4,1.7l17.1,12.1c1.1-1.9,3.4-5.7,4.7-7.6c1.2-1.7,3.8-5.3,5.1-7
	l-18.7-12.2c-4.8-9.6-9.4-17.1-14.5-27.9c-0.7,1.2-3.1,5.1-3.8,6.2c-0.9,1.2-2.9,4.6-3.8,5.7l9.8,14.1
	C424.5,356.3,413.5,355.5,408.4,354.9z M315.8,476.8c-6.2-5.7-9.3-10-15.1-16c5.6-2.6,7.8-8.5,6.5-15.5c-0.9-4.9-5.1-8.3-10.2-9.6
	c-3.8-1-9.9,0.3-13.8,1l-16.6,3.1l8.8,48.8c2.1-0.4,6.4-1.4,8.5-1.9c2.2-0.4,6.5-1,8.6-1.2l-2.6-14.3l0.5-0.1c2.3,2.7,3.3,4.7,5.3,8
	l3.8,5.1c2.5-0.7,9.3-2,11.8-2.5c3.5-0.9,7.1-1.3,7.4-1.6C319.1,479.8,315.8,476.8,315.8,476.8z M287.6,459.2
	c-2.9-15.7-3.4-16.6-2.6-16.7c1-0.1,4.5-0.5,6.2,3.3c0.8,1.3,1.4,3.6,1.5,4.6C293.5,456.2,290.9,458.4,287.6,459.2z M435.5,227.7
	c1-0.4,3.1-1.2,4-1.4c1-0.2,2.7-0.4,3.7-0.5c-1.6-4.1-2.3-7.1-4.1-14.2l13.6-3.4l1.3,5.4c0.8,3.2,1.2,6.1,1.5,8.7
	c1-0.3,3.7-1.3,4.7-1.5c0.9-0.2,3.4-0.7,4.4-0.8c-1-2.5-2-5.2-2.7-8.4l-1.4-5.4l12.3-3.1c2,7,2,9.7,2.5,14.1c1-0.4,2.6-1.1,3.6-1.3
	c0.9-0.2,2.7-0.4,3.7-0.5l-7.5-30.9l-47.4,11.9L435.5,227.7z M353.8,409.8c-2.3,1.6-4.8,3.4-7.3,4.9l28.8,40.5
	c2.3-1.7,5.1-3.6,7.5-5.2c2.3-1.7,4.2-3.3,6.8-4.8l-28.8-40.5C358.5,406.5,356.2,408.2,353.8,409.8z M465.6,174.9
	c0.5-0.5,6.3-3.6,7.1-3.8l-20.4-36.6c-0.5,0.5-6.3,3.8-7.1,3.9c0.3,0.3,6.6,10.6,6.6,10.6l-36.4,19.8c1.7,2.6,6.6,11.2,8,14.7
	l36.9-19.9C460.4,163.6,465.4,174.4,465.6,174.9z M329,437.8c-2.3-2.3-3.2-7.3,1.3-9.5c3.7-1.9,6.8-0.1,9.7,2.7l3.1-1.4
	c-0.4-2.5-0.8-6.5-1-9c-2.1-0.8-10.9,0.3-15.6,2.6c-10,4.8-14.2,14.4-10.6,21.9c7.6,15.8,25.9,2,29.9,12.9c1.1,3.1,0.3,6.1-3.7,8.1
	c-3.3,1.5-7.3,1.3-9.8-3.3l-4.6,2.2c1.3,3.4,2.3,6.2,3.1,9.7c0.1,0.3,6.2-0.7,10.5-1.9c13.1-3.5,19.9-14.6,16.9-23.4
	C352.2,433,334.9,443.6,329,437.8z M227.7,439.5l-0.7,48.8l32.4,0.4c-0.1-1-0.2-3.1-0.2-4s0.2-2.9,0.3-3.9
	c-4.4,0.5-7.4,0.3-14.7,0.3l0.2-13.8l5.7,0.1c3.3,0,6.2,0.1,8.8,0.5c-0.1-1.1-0.2-3.7-0.2-4.7s0.2-3.7,0.3-4.7
	c-2.6,0.3-5.6,0.3-8.8,0.3l-5.7-0.1l0.2-12.3c7.3-0.1,9.9,0.3,14.3,1c-0.1-1-0.2-2.8-0.3-3.7c0-1.1,0.2-2.8,0.3-3.8L227.7,439.5z
	 M78.8,219.6c0.5-2.8,1.3-5.7,2.1-8.5l-48.7-10c-0.4,2.9-1,5.7-1.5,8.5c-0.7,2.8-1.3,5.9-1.9,8.6l48.6,10
	C77.9,225.4,78.3,222.4,78.8,219.6z M277.4,405.5c9.8,3.9,31.2-2.3,39.1-10.2C304.2,392.9,281.6,391.5,277.4,405.5z M330.5,367.5
	c-9.9-0.5-29.4,8.8-32.6,23.3C315.1,392.3,328.8,374.5,330.5,367.5z M196.8,395.1c8,8,29.3,14.3,39.1,10.2
	C231.6,391.5,209.2,392.9,196.8,395.1z M363.2,363.1c-16.9,0.3-36.9,9.7-41.4,30.8C342.7,392.7,358.2,375.1,363.2,363.1z M278,264.4
	c-1,0.8-2.2,2-1.9,4.1c0.1,1.3,0.8,1.7,1.7,1.5c1.7-0.3,2.6-1.7,2.6-3.7C280.3,262.2,280.1,262.6,278,264.4z M165.5,328.1
	c29.3-11.7,57.4-11.8,68.3-8.7c10.9,3.2,23.2,11.3,23.2,11.3s12.3-8.2,23.2-11.3c10.9-3.1,39.1-2.9,68.5,8.7
	c6.9,2.7,17.4,5.3,17.4,5.3V209c0,0-13.4,3.2-26.1,2.7c-16-0.5-40.7-15.4-64.6-7.5c-8.7,2.8-16.2,7.8-18.2,9.3
	c-2.1-1.3-9.5-6.3-18.5-9.3c-23.9-7.7-48.5,7.1-64.5,7.5c-12.6,0.4-25.8-2.7-25.8-2.7l0.2,124.1
	C148.5,333.1,158.6,330.8,165.5,328.1z M255,308.7c-1,0.5-2.9,0.1-4.6-0.2c-3.8-0.9-4.4-3.1-4.4-6.3v-10.8l-2.4-0.5
	c0.1-0.9,0.2-1.4,0.1-2.3l2.3,0.4v-3.9c-1,0,5-0.8,5-0.8v6.1l3.4,0.9c-0.1,0.8-0.2,1.5-0.1,2.4l-3.3-0.5v8.9c0,3.5,1,4.8,4,4.8
	V308.7z M275.6,296.6c-5.9,2.3-6.6,2.5-10.7,4.1c0,0-1.3,4.2,3.8,4.2c2.5,0,5.2-2.4,6.2-3.7v2.4c-2,2.4-3.6,4.4-8.1,5.6
	c-6.3,1.6-8-3.3-7.7-8.5c0.2-4.5,2.9-9,8.7-10.9C274.4,287.7,275.9,292.1,275.6,296.6z M292.6,301.6c-1,0-2.8-0.5-2.9-0.9
	c-0.1-0.3-0.3-0.1-0.7,0.3c-0.3,0.4-2.1,1.9-4.4,2c-4.4,0.1-4.9-2-5-3.5c-0.1-3.6,2.3-5.9,6-7.2c0.9-0.3,2-0.7,3.1-1.2
	c0.5,0,0.5-0.9,0.4-1.5c0-1.7-0.8-2.2-2.4-2.2c-2.6,0-3.4,2.5-3.7,3.5h-1.7c-0.1-1,0.2-1.9,0.3-2.3c0.5-1.3,3.2-4.1,6.9-4.4
	c4-0.3,6.5,1.6,6.5,5.1c0,0.2,0,0.4,0,0.7l-0.4,7.1c0,1.3-0.3,2.2,2.1,2l0.1,0.3C296.8,300.1,295.4,301.6,292.6,301.6z M314.4,300.8
	c-1.2,0.7-3.8,1.1-5.7,1c-5.9-0.4-9.5-3.9-9.5-9c0-5.7,2.9-9.9,8.5-9.5c3.1,0.2,5.1,1.1,6.8,2.4l-0.4,4.4l-0.9-0.2
	c0-1.2-1.1-3.7-4.4-3.7c-3.2,0-3.9,3.4-4,6.4c0.1,3.7,1.5,6,5,6.9c1.4,0.3,4,0.3,4.9-0.3L314.4,300.8z M325.2,288.4
	c0,0.7,0.2,0.4,0.4,0.2c0.2-0.2,0.7-1.1,2.9-1.2c3.1,0,4.9,2,6,3.5c1.1,1.4,1.5,2.7,1.5,4.5v12.1c-1-0.3-2.2-0.7-3.2-1
	c-0.8-0.2-1.8-0.4-2.8-0.4V298c0-3.3,0.6-7.2-2.9-7.2c-2.3-0.1-2.1,2.7-2.1,4.9v8.3c-1-0.1-2.4-0.9-3.3-0.9c-0.8,0-1.7-0.4-2.7-0.3
	v-27c1,0.1,2,0.2,3.1,0.4c0.9,0.1,1.5,0.5,3,0.8C325.1,279.2,325.3,287.7,325.2,288.4z M320.5,253.5c1.9,0.7,3.3,3.6,3.3,8.1
	l0.1,10.8c-1-0.3-1.9-0.5-2.7-0.8c-0.9-0.2-1.7-0.3-2.7-0.5l0.1-8c0-3.3,0.1-7.1-2.5-7.2c-3.1-0.2-3.1,3.5-3.1,5.8l0.1,8.1
	c-1.1-0.3-2.5-0.5-3.3-0.7c-0.9-0.2-1.6,0.1-2.5,0c0.4-4,0.4-11.2,0.1-18c0-0.2,2,0.2,2.7,0.4c1.4,0.3,0.8,0.3,2.8,0.7v2
	C314,252.9,316,252.1,320.5,253.5z M298.7,218c0.9,0,3.1,0.1,3.1,0.1c0.9,2.5,2.7,8.1,2.7,8.1c0.7,1,0.7,2,1.4,0.5l3.2-8.2
	c0.9,0,1.1,0.1,1.2,0.1c0.5,0,1.7,0.1,2.7,0.2l-5,10.4c-2.6,5.9-4.1,9.4-6.4,15.6c-0.5-0.1-1.6,0-2.2,0c-0.5,0-1.9,0.2-1.9,0.2
	l4.9-9.9l-7-16.9C296.3,217.9,297.8,218,298.7,218z M295,251.8c1-0.1,2-0.2,3-0.2v3.1c0,0.5,0.1,0.5,0.5-0.2c0.5-2,2.2-3.5,5.5-3.5
	c-0.2,1.6-0.5,3.3-0.6,5.2l-0.4,0.3c-0.4-0.3-1.3-0.3-2.1-0.3c-1.5,0-2.2,0.7-2.6,2.2c-0.3,1-0.2,2.9-0.2,4l0.2,6.8
	c-1.1,0-2.1,0-2.9,0.2c-1,0.1-2,0.4-2.8,0.5l-0.1-17.9C293.2,252,294.2,251.9,295,251.8z M286,210.4c1,0.1,1.6-0.3,2.4-0.3
	c0.9,0,2.6,0,2.6-0.1v26.1c0-0.1-1.6,0.3-2.4,0.3c-0.9,0-1.6,0.5-2.6,0.7V210.4z M285.7,259.7l-0.2,7.5c0,2.3,2.3,1,2.4,1l0.4,0.4
	c0,0.9-1.1,2.3-4.1,2.6c-2.1,0.2-2.6,0-3.3-0.2c-0.4-0.2-0.9,0.3-0.9,0.3c-1.6,1.7-2.4,1.9-4.1,2.4c-2.8,0.7-4.9-0.4-4.8-3.3
	c0.1-3.3,1.1-4.5,5-6.9c0.3-0.2,2.9-1.7,3.9-2.2c0.5-0.2,0.3-1,0.3-1.4c0-1.7-0.8-2.3-2.4-2.3c-2.6,0-3.4,2.3-3.7,3.3h-1.7
	c-0.1-1,0.2-1.7,0.4-2.1c0.5-1.3,2.8-4,6.5-4.3C283.6,254.2,285.7,256.1,285.7,259.7z M270.1,224.1c1-0.1,2.2-0.4,4,0.3
	c0.1,0.1,0-0.2,0-1v-10.1c1-0.3,2.1-0.7,3-0.9c1.1-0.3,2-0.4,3-0.5v26.5c-1,0.5-1.8,0.8-2.4,1.1c-1,0.4-1.6,0.9-2.6,1.2v-1.5
	c-2,1.6-3.6,2.9-4.4,3.2c-2.1,0.7-8.2,3.2-8.2-8.2C262.4,228.3,266.1,224.6,270.1,224.1z M267.8,268.2c-6,0.3-10.7,0.2-10.7,0.2
	s-0.1,5.9,4.2,5.9c2.7,0.2,4.1-0.7,5.3-1.4c0.3-0.2,0.9-0.1,0.9,0.2c-0.2,1.1-0.5,1.6-1.2,2.3c-0.7,0.7-2.4,2.1-5.6,2.1
	c-5.9,0-9.9-5.4-9.8-10.2c0.1-5.4,3.4-8.5,8.2-8.5C264.6,258.7,268.2,262.3,267.8,268.2z M249.5,227.3c-1.7-0.7-3.7,0.3-4.2,1.3
	l-1.9-0.7c0.7-2,3.7-3.6,6.3-3.3c6,0.8,7.3,4.6,7.3,7.1v8.9c0,1.3,0.4,1.7,1.8,2.1c0.3,0.1,0.3,0.7-0.1,0.8c-2.4,0.9-3.3,0.5-4.5,0
	c-0.5-0.3-1.4-1-1.8-1.5c-0.3-0.5-0.3-0.4-1.2,0c-0.8,0.4-1.3,0.8-2.7,0.8c-2.4-0.2-6-2.4-6.2-6c-0.1-2.3,1.3-3.7,2.7-4.1
	c1.2-0.3,2.4-0.4,4.7-0.5c0.7,0,1.6,0,1.7-0.2c0.1-0.4,0.1-1.2,0.1-1.5C251.8,229.1,251.3,227.9,249.5,227.3z M241.5,245.9
	c1,0.2,1.7,0.3,2.7,0.5s1.6,0.4,2.9,1c-0.5,11.5-0.5,14.7,0,27.1c0,0-2.3-1.1-3.3-1.4c-0.8-0.2-3.1-0.9-3.1-0.9
	c0.2-12.5,0.3-14.3-0.1-26.1C240.9,245.9,241.2,245.9,241.5,245.9z M208,293.5v7.7c-1,0.2-1.5,0.4-2.4,0.5c-1.1,0.3-1.7,0.8-2.5,0.8
	l0.2-6.6c0-3.3,0-7-2.5-7c-3.1,0-2.9,3.8-2.9,6v9.2c-1,0.1-1.9,0.4-2.7,0.5c-1,0.2-1.3,0.4-2.3,0.8V289c0-0.2,1-0.9,1.8-1.1
	c0.7-0.2,1.6-0.7,2.5-0.8l0.3,1.6c3.3-3.9,5.3-5.1,8.3-3.9C208.6,285.9,208,289.2,208,293.5z M231.9,211.9c0.9,0.1,2,0,2.9,0
	s1.6,0.3,3.2,0.7c-0.4,8.1-0.2,20.3,0,25.9c-1.5-0.2-2-0.3-3.2-0.4c-0.9,0-2,0.1-2.9,0C232.1,232.5,232.4,219.9,231.9,211.9z
	 M232,275.1v25.6c-2-0.2-1.8-0.3-2.5-0.3c-1.1-0.1-1.8-0.1-2.6-0.3c0-0.1,0.1-0.5,0-0.9c0,0-0.1-0.5-0.5,0c0,0-1.4,0.9-2.8,0.9
	c-2.3,0.5-10.2-0.9-9.6-9.7c0.5-6.5,5.2-8.2,7.1-8.2c2.2,0,3.5,0.4,4.7,2c0.4,0.5,0.4,0.9,0.4,0v-9.8c0-0.3,0.7-0.3,1-0.2
	c0.4,0,1.7,0.1,2.4,0.3C230.2,274.6,230,274.5,232,275.1z M228.3,259.9c-3.6-0.2-8.5-0.4-10.6-0.3c-0.3,0-0.3,0.2-0.3,0.7
	c-0.1,2.4,1.5,4.6,4.6,5.1c1.4,0.2,4.2-0.3,5.7-1.2l-0.5,2.4c-0.9,0.7-1.7,1-2.8,1.2c-1.9,0.5-3.8,0.3-4.9,0.2
	c-5.1-0.4-7.3-4.4-7.3-8.3c0-4.9,2.7-9.3,7.8-9.3C227,250.4,228.8,254.9,228.3,259.9z M217.3,212.1c3.1,0,5.7,1,8.3,2.4l-0.9,3.7
	c-0.1,0.1-0.4-0.1-0.5-0.2c-1.3-1.9-3.2-3.2-7.3-3.2c-4.4,0-8.3,5.1-8.1,11.7c0.1,6.1,3.3,8.4,8.2,8.4c1.7,0,2.9-0.4,3.8-1l-0.1-7.8
	c0.9,0.1,1.6,0,2.4,0c1.4,0.1,1.9,0.2,2.9,0.1v9.8c-1-0.1-6.4,1.2-10.1,1.2c-9.7,0-13.6-3.2-13.6-10.8
	C202.3,218.1,209.2,212.1,217.3,212.1z M184.7,257.3c1.7-0.4,2.3-0.5,3.2-0.5l3.2,9.8c0.2,0.5,0.2,0.4,0.4-0.1
	c1.2-3.9,1.7-5.6,3.1-10.8c0,0,1.6-0.5,2.6-0.8c1.6-0.3,2.2-0.3,2.9-0.4l2.3,9.3c0.1,0.3,0.1,0.5,0.3-0.3c1.1-4,2.7-10,2.7-10
	c0.5-0.2,1.1-0.3,1.9-0.4c0.5-0.2,1.2-0.2,1.3-0.1c-1.4,4.5-3.6,11.3-5.3,17.3l-4.8,1.1l-2.7-8.2c-0.2-0.4-0.7-0.4-0.8,0
	c-1.2,3.6-2.1,6.1-3.3,10.2l-4,1.3c-2.1-5.6-3.9-10.5-5.8-16.6C181.9,258.1,183.1,257.7,184.7,257.3z M176.7,299.9
	c0.3-0.2,2.9-1.4,3.9-2c0.3-0.1,0.3-1,0.3-1.4c0-1.7-0.8-2.1-2.4-2.1c-2.6,0-3.4,1.6-3.7,3.6H173c-0.1-1,0.3-2,0.4-2.4
	c0.5-1.3,2.8-4.1,6.5-4.5c4-0.3,6.2,1.5,6.2,5.1l-0.2,7.5c0,2.3,2.2,1,2.3,0.8l0.5,0.5c0,0.9-1.1,2.5-4.1,2.8
	c-2.1,0.2-2.6-0.1-3.3-0.4c-0.3-0.1-0.8,0.3-0.8,0.3c-1.3,1.4-2.4,1.9-4.1,2.2c-2.9,0.5-4.9-1.1-4.9-3.5
	C171.7,303.5,172.3,302,176.7,299.9z M286.8,294c-0.7,0.3-2,1.5-2.1,3.5c-0.1,1.2,0.4,2.2,1.6,2c2-0.3,2.4-1.4,2.6-3.2
	C289.2,293.7,289.1,292.7,286.8,294z M215.3,390.8c-3.1-14.5-22.6-23.9-32.6-23.3C184.4,374.5,198,392.3,215.3,390.8z M191.5,393.9
	c-4.6-21.1-24.6-30.5-41.4-30.8C155.1,375.1,170.6,392.7,191.5,393.9z M242.9,400.1c-2.3-15.5-17.9-27.2-29.2-29.1
	C215.8,382.5,227.5,398.2,242.9,400.1z M251.8,388c0,2,2.1,4.6,4.7,4.6c2.6,0,4.7-2.6,4.7-4.6h4.2l3.9-34h-3.9l-2.7,28h-3.5l2-28
	h-9.7l2,28H250l-2.4-28h-3.9l3.9,34H251.8z M299.6,371.1c-11.4,1.9-27,13.6-29.2,29.1C285.7,398.2,297.5,382.5,299.6,371.1z
	 M269.4,239.3c0.7,0.1,0.8,0.1,1.5,0c1-0.4,1.6-1,2.2-1.9c0.5-0.9,1.3-2.6,1.3-4.7c0.1-2-0.1-3.3-0.4-4.7c-0.4-0.9-0.7-1.4-1.4-1.9
	c-1-0.2-1.9-0.1-2.8,0.4c-0.3,0.2-1.2,1.1-1.4,1.4c-0.3,1.1-0.7,1.9-0.9,3.4c-0.2,2.3-0.1,4,0.5,6
	C268.4,238.4,268.6,238.9,269.4,239.3z M178.2,306.2c1.6-0.3,2.4-1.6,2.3-3.4c0-3.7-0.2-3.2-2.2-1.7c-1.1,0.8-2,1.7-1.7,3.7
	C176.7,306,177.2,306.3,178.2,306.2z M40.3,249.7c-1.6,0.8-17.3,10.8-25.3,13.4v0.7c1,1.2,4.6,5.6,4.6,5.6c2.5-2,4.4-3.7,8.4-5.7
	v42.2c2-0.2,5.2-0.2,6.7-0.2c1.6,0,4.6,0,6.7,0.2c0,0-0.1-54.5,0-55.7C41.4,249.7,41,249.4,40.3,249.7z M224.8,186.4l4.8,0.1
	l0.6,7.8c2.1,0.3,3.8,0.8,5.8,1.2V187h3.7v10c1.6,0.5,3.3,0.6,4.3,1.2V187h4v12.8c6,3.1,9,6.2,9,6.2s3-3.1,9-6.2V187h3v11.1
	c2-0.5,3-1.1,5-1.6V187h3v8.5c2-0.4,3.9-0.9,6.1-1.2l0.8-7.8l4.8-0.1c5.2,0.2,5.5-9.4,0.8-9.4c0,0-16.5,0-32.7,0s-32.7,0-32.7,0
	C219.4,177,219.6,186.6,224.8,186.4z M89.4,166.8c-2.6,7.5-1.2,5.3-5.1,14.7l-40.3-17c-1,2.7-2,5.4-3.1,8.2c-1.1,2.7-2.4,5.3-3.7,8
	l45.4,19.2c3.3-10.5,7.4-20.4,12.9-30.4c0,0-2.1-0.7-3.1-1.1C91.6,168,90.3,167.4,89.4,166.8z M267.4,291.7
	c-2.3,0.8-2.4,3.7-2.5,4.7c-0.1,1.9,0.2,2,1.5,1.3c0.8-0.3,3.6-1.4,3.6-1.4C270.6,293.9,269.4,291.1,267.4,291.7z M112.3,133.7
	c-4.2,6.8-2.4,5-8.4,13.2L68.7,121c-1.6,2.5-3.2,4.9-4.9,7.3c-1.7,2.4-3.6,4.6-5.4,6.9L98,164.3c5.7-9.5,12-18.2,19.6-26.7
	c0,0-1.9-1.2-2.7-1.7C114.1,135.3,113,134.4,112.3,133.7z M92.1,94.3c-2.1,2.1-4.1,4.1-6.3,6.1l35.5,34.6c2-2.2,3.8-4.5,5.9-6.5
	c2.1-2.1,4.2-4,6.4-6L98,87.9C96.2,90.1,94.2,92.2,92.1,94.3z M249.6,234.2c-0.9,0.2-2.3,1.4-2.1,3.5c0.1,1.1,1,2.2,2,2.3
	c1.3,0,2-0.4,2-2.7C251.5,234.3,251.2,233.8,249.6,234.2z M257.5,266h4.9c0.2,0,0.3-0.4,0.3-0.4c0-1.5-0.5-4.5-2.7-4.5
	c-2.6,0-2.8,3-2.8,4.6C257.1,266,257.5,266,257.5,266z M223.2,285c-3.5,0-3.3,5.2-3.3,7.3c0,1.9,0.1,4.5,3.6,4.6
	c3.2,0,2.9-3.9,2.9-6C226.5,288,226,285,223.2,285z M217.5,256.8c0.2,0.2-0.1,0.2,0.2,0.2h5.6c0.2,0,0.2-0.1,0.2-0.4
	c0.1-1.2-0.9-4.6-2.8-4.6C218.3,252,217.6,255,217.5,256.8z M155.8,49.5c0,0-3.9,2.8-4.7,3.3c-0.9,0.5-5.2,2.9-6.1,3.3l13,21.4
	c-14.7-4.7-17.3-5.7-31.9-9.9l-10,6.1c5.4,7.6,8.4,12.5,12.4,19.2c5.7,9.3,7.4,11.7,13.7,22.9c0,0,4.1-3.2,4.9-3.7
	c0.8-0.5,4.2-2.9,5.1-3.4l-13.3-21l10.1,3.5c7.1,2.2,14.3,3.9,22.1,6.3l9.6-5c-7-11.5-8.7-14.8-12.2-20.4
	C164.6,65.6,159.9,57.6,155.8,49.5z M256,0C114.8,0,0,114.9,0,256s114.8,256,256,256s256-114.8,256-256C512,114.9,397.2,0,256,0z
	 M463.8,383.7c-43,69.7-120,116.2-207.7,116.2c-92.4,0-173-51.6-214.4-127.6c-0.1-0.1-0.1-0.2-0.2-0.4c-0.7-1.3-1.4-2.6-2-3.8
	c-0.3-0.7-0.7-1.3-1-2c-0.2-0.4-0.4-0.8-0.7-1.3C31.4,352.2,26.1,339,22.1,325H102c26.3,59,85.3,99.7,153.9,99.7
	c68.4,0,127.7-40.7,154.1-99.7h79.9C483.7,346,474.9,365.5,463.8,383.7z M125.9,162.7c3.2-4.5,6.8-8.7,10.4-12.7l0.8,37h9l4.2-51
	h0.1c2.5-3,5.2-4.4,7.8-6.4l1.3,57.4h4.9l4.2-65.1c3.9-2.5,8-4.7,12-7l1.2,72h4.2l2.4-76c4.7-2.2,9.4-4.1,14.3-5.9l1.3,82h2.7
	l2.4-84c4.6-1.4,9.3-2.7,14.1-3.8l0.3,44.3c-1.1,3.1-2.3,7.3-2.3,11.7c0.2,5.8,2,11.8,6.1,15.8h16.9c-8.1-10-3.6-28.7,6.3-33.3
	c-0.5,2.4-1.5,11.4,4.2,16.8c4.2,4,6.3,11.5,2.4,16.5h20.7c2.7-5,8.1-17.8-3.4-29c-7.3-7.2-7.4-22.2-7.4-22.2
	c-3.2,0-13.2,7.3-13.5,12.3c0,0-0.2-15.8,6.7-25.2c1.6-2.2-4.3-2.3-13.3,5.4V96.2c3-0.4,5.9-0.7,8.9-0.7c10.2,0,20.3,1.1,30,2.9
	l-0.3,72.2l3.4,0.1l3.7-71c4.5,1,8.9,2.7,13.2,4.1l2.1,83.2h2.4l4.8-79.9c4.4,1.7,8.7,3.9,12.9,6l1.6,73.9h3.6l4.4-68.8
	c4,2.4,8,5.2,11.8,7.9l1.2,60.9h6l3.9-52.4c3.6,3.1,7,6.5,10.2,9.9l0.8,42.5h8.5l1.7-30.2c2.5,3.2,4.8,6.4,7.1,9.7l-0.1,20.1
	l11.9-0.1c10.2,21,16.3,44.5,16.3,69.6c0,32.9-9.8,63.6-26.8,89.1V240h-12.4l-0.1,106h-13.2c-14.7-9-69.9-40.2-107.3-8.1
	c-37.5-32.1-92.6-0.9-107.3,8.1H135V240h-12v107h0.6c-17.6-26-28-57-28-90.5c0-24.9,5.8-49.5,15.9-69.5H126L125.9,162.7z
	 M226.7,135.8l0.2-37.6c5.7-1.1,11.2-1.7,17.2-2.2v17.6c-2,1.5-4.5,4-6.3,5.9C237.7,119.6,230.1,127.7,226.7,135.8z M256.5,343.3
	c-0.1,0.1-0.1,0.2,0,0.1c-2-1.2-27.1-20.5-58.2,2.5h-19.5c30.2-24,61.6-19.2,77.8-2.4c16.2-16.8,47.6-21.6,77.8,2.4h-19.5
	c-31.2-23-56.2-3.8-58.2-2.5C256.7,343.6,256.6,343.4,256.5,343.3z M256.3,345.7l121.8,13.8c-29.5,34.8-73.2,57.1-122.4,57.1
	c-49.1,0-92.7-22.1-122.7-56.9v-0.2L256.3,345.7z M413.8,316c7.1-18,10.7-38.8,10.7-59.9c0-93-75.5-168.6-168.5-168.6
	s-168.5,75-168.5,168.1c0,21,3.9,42.3,11,59.3H19.6c-1.6-6-2.9-12.1-4-18.5c-0.2-1-0.4-1.9-0.5-2.9c-0.1-0.5-0.2-1-0.2-1.5
	c-1.8-11.8-2.7-23.8-2.7-36.1c0-99.4,59.8-185.1,145.3-223c30.2-13.4,63.5-20.8,98.6-20.8c37.9,0,73.7,8.6,105.7,24
	c50.9,24.6,92,66.4,115.8,117.8c14.3,31.1,22.4,65.8,22.3,102.3c0,20.6-2.7,40.7-7.5,59.7L413.8,316L413.8,316z"/>
</svg>
