<svg focusable="false" xmlns="http://www.w3.org/2000/svg" xmlns:xlink="http://www.w3.org/1999/xlink"
	 viewBox="0 0 512 215" preserveAspectRatio="xMidYMin slice" style="enable-background:new 0 0 512 215;">
<style type="text/css">
	.st0{fill:#F6F6F4;}
</style>
<g>
	<path class="st0" d="M236.6,92.3c-0.9,0-1.9,0.1-2.7,0c0.4,7.4,0.2,18.9,0,24c0.9,0.1,1.9,0,2.7,0c1.1,0.1,1.5,0.2,2.9,0.4
		c-0.2-5.2-0.4-16.4,0-23.8C238.1,92.6,237.4,92.3,236.6,92.3z"/>
	<path class="st0" d="M269.2,120.2c0.7-0.2,2.6-1.4,3.8-2.9v1.4c0.8-0.3,1.7-0.7,2.6-1.1c0.5-0.3,1.2-0.5,2.4-1V92.3
		c-1.1,0.1-1.6,0.2-2.6,0.5c-0.8,0.2-1.7,0.5-2.6,0.8v9.3c0,0.7,0,1-0.1,0.9c-1.6-0.7-2.9-0.4-3.8-0.3c-3.6,0.5-7.1,3.9-7.1,9.2
		C261.8,123.1,267.3,120.8,269.2,120.2z M266.5,110.3c0.2-1.4,0.5-2.1,0.8-3.1c0.2-0.3,1-1.1,1.3-1.3c0.9-0.5,1.7-0.6,2.6-0.4
		c0.7,0.4,0.9,0.9,1.3,1.7c0.3,1.3,0.5,2.5,0.4,4.3c0,1.9-0.7,3.5-1.2,4.3s-1.1,1.3-2,1.7c-0.7,0.1-0.8,0.1-1.4,0
		c-0.7-0.4-0.9-0.9-1.3-1.7C266.4,114,266.3,112.4,266.5,110.3z"/>
	<path class="st0" d="M244.9,148.5c0.9,0.3,3,1.3,3,1.3c-0.5-11.4-0.5-14.3,0-24.9c-1.2-0.5-1.8-0.7-2.7-0.9
		c-0.9-0.2-1.6-0.3-2.5-0.5c-0.3,0-0.6,0-0.7,0.2c0.4,10.9,0.3,12.5,0.1,24C242.1,147.7,244.2,148.3,244.9,148.5z"/>
	<path class="st0" d="M251.9,110.7c-0.1,0.2-1,0.2-1.6,0.2c-2.1,0.1-3.2,0.2-4.3,0.5c-1.3,0.4-2.6,1.7-2.5,3.8
		c0.2,3.3,3.5,5.3,5.7,5.5c1.3,0,1.8-0.3,2.5-0.7c0.8-0.4,0.8-0.5,1.1,0c0.3,0.5,1.1,1.1,1.6,1.4c1.1,0.5,1.9,0.8,4.1,0
		c0.3-0.1,0.3-0.6,0-0.7c-1.3-0.3-1.8-0.7-1.8-1.9v-8.2c0-2.3-1.1-5.8-6.6-6.5c-2.4-0.3-5.1,1.2-5.7,3l1.7,0.6
		c0.5-0.9,2.3-1.8,3.9-1.2c1.7,0.5,2.1,1.6,2,2.8C252,109.6,252,110.3,251.9,110.7z M251.8,115.6c0,2.1-0.6,2.5-1.8,2.5
		c-0.9-0.1-1.7-1.1-1.8-2.1c-0.2-1.9,1.1-3,1.9-3.2C251.6,112.4,251.9,112.9,251.8,115.6z"/>
	<path class="st0" d="M251.7,175.1v-8.2l3,0.5c-0.1-0.8-0.1-1.5,0-2.2l-3-0.8v-5.6c0.2,0-5.5,0.7-5.1,0.7v3.6l-2.1-0.4
		c0.1,0.8,0.1,1.3,0,2.1l2.1,0.5v9.9c0,3,0.8,5,4.3,5.8c1.6,0.3,3.4,0.7,4.5,0.2v-1.7C252.6,179.5,251.7,178.3,251.7,175.1z"/>
	<path class="st0" d="M265.5,150.6c0.6-0.6,0.9-1.1,1.1-2.1c0-0.3-0.5-0.4-0.8-0.2c-1.1,0.7-2.4,1.5-4.9,1.3c-4,0-3.9-5.4-3.9-5.4
		s4.3,0.1,9.8-0.2c0.4-5.4-2.9-8.7-7.9-8.7c-4.4,0-7.4,2.8-7.5,7.8c-0.1,4.4,3.6,9.4,9,9.4C263.3,152.5,264.9,151.2,265.5,150.6z
		 M259.7,137.5c2,0,2.5,2.7,2.5,4.1c0,0-0.1,0.5-0.3,0.4h-4.5c0,0-0.4,0-0.3-0.3C257.1,140.3,257.3,137.5,259.7,137.5z"/>
	<path class="st0" d="M210.5,159.3c-2.8-1.1-5.1,0-8.1,3.6l-0.4-1.5c-0.9,0.1-1.9,0.5-2.5,0.7c-0.7,0.2-1.3,0.8-2,1v15
		c1-0.3,1.5-0.5,2.4-0.7c0.7-0.1,1.8-0.4,2.7-0.5v-8.4c0-2,0-5.5,2.8-5.5c2.3,0,2.4,3.4,2.4,6.4l-0.1,6.1c0.7,0,1.5-0.4,2.5-0.7
		c0.8-0.1,1.4-0.3,2.6-0.5v-7.1C212.8,163.3,212.9,160.2,210.5,159.3z"/>
	<path class="st0" d="M191.7,176.6l0.2-6.9c0-3.3-2-5.1-5.7-4.8c-3.4,0.3-5.5,2.7-6,3.9c-0.1,0.3-0.5,1.3-0.4,1.8h1.7
		c0.3-1,1-2.9,3.4-2.9c1.5,0,2.2,0.7,2.2,2.3c0,0.4,0,1.2-0.3,1.3c-0.9,0.5-3.3,1.6-3.6,1.8c-4,1.9-4.6,3.3-4.7,6.1
		c0,2.2,1.8,3.7,4.5,3.2c1.6-0.3,2.6-0.7,3.8-2c0,0,0.4-0.4,0.7-0.3c0.6,0.3,1.1,0.6,3,0.4c2.8-0.3,3.8-1.8,3.8-2.6l-0.5-0.5
		C193.7,177.5,191.7,178.7,191.7,176.6z M184.6,178.9c-0.9,0.1-1.4-0.2-1.5-1.3c-0.2-1.8,0.6-2.7,1.6-3.4c1.8-1.3,2-1.8,2,1.6
		C186.8,177.4,186.1,178.6,184.6,178.9z"/>
	<path class="st0" d="M229.7,149.4c-0.3-0.1-0.6-0.1-0.6,0.2v9c0,0.8-0.3,0.5-0.7,0c-1.1-1.4-2.6-1.8-4.6-1.8c-1.7,0-6,1.5-6.5,7.5
		c-0.6,8.1,6.7,9.4,8.8,8.9c1.3,0,2.6-0.8,2.6-0.8c0.4-0.5,0.5,0,0.5,0c0.1,0.3,0,0.7,0,0.8c0.8,0.2,1.4,0.2,2.4,0.3
		c0.7,0,1.1,0.1,2.3,0.3v-23.5c-1.1-0.5-1.5-0.4-2.2-0.6C231.1,149.5,230.1,149.4,229.7,149.4z M226.2,170.3
		c-3.2-0.1-3.3-2.5-3.3-4.2c0-1.9-0.2-6.7,3-6.7c2.6,0,3,2.8,3,5.4C228.9,166.7,229.1,170.3,226.2,170.3z"/>
	<path class="st0" d="M219.4,115.5c3.4,0,8.8-1.2,9.4-1.1v-9c-0.8,0.1-1.5,0-2.8-0.1c-0.8,0-1.6,0.1-2.4,0l0.1,7.2
		c-0.8,0.5-1.9,0.9-3.5,0.9c-4.5,0-7.4-2.1-7.5-7.7c-0.2-6,3.4-10.7,7.4-10.7c3.8,0,5.5,1.2,6.7,2.9c0.1,0.1,0.4,0.3,0.5,0.2
		l0.8-3.4c-2.4-1.3-4.8-2.2-7.6-2.2c-7.5,0-13.7,5.5-13.7,13.1C206.8,112.6,210.5,115.5,219.4,115.5z"/>
	<path class="st0" d="M447,0c26.2,37.7,41.7,83.5,41.7,132.8c0,28.9-5.3,56.6-14.9,82.2h24.8c8.7-25.8,13.5-53.4,13.5-82.2
		c0-48.6-13.6-94.1-37.1-132.8H447z"/>
	<path class="st0" d="M38.2,215c-9.6-25.5-14.9-53.2-14.9-82.2C23.3,83.5,38.7,37.7,65,0H37.1C13.6,38.7,0,84.2,0,132.8
		c0,28.7,4.7,56.4,13.5,82.2H38.2z"/>
	<path class="st0" d="M222.4,143.8c1,0.1,2.8,0.3,4.5-0.2c1-0.2,1.8-0.5,2.6-1.1l0.5-2.2c-1.3,0.8-3.9,1.3-5.2,1.1
		c-2.8-0.5-4.3-2.5-4.2-4.7c0-0.4,0-0.6,0.3-0.6c1.9-0.1,6.4,0.1,9.7,0.3c0.4-4.6-1.2-8.7-7.7-8.7c-4.7,0-7.2,4-7.2,8.5
		C215.7,139.8,217.7,143.4,222.4,143.8z M223.6,129.2c1.8,0,2.7,3.1,2.6,4.2c0,0.3,0,0.3-0.2,0.4h-5.1c-0.3,0.1,0,0-0.2-0.2
		C220.8,131.9,221.4,129.2,223.6,129.2z"/>
	<path class="st0" d="M436.1,0h-15.6c0.7,0.9,1.3,1.7,1.6,2c0.6,0.8,3.9,4.9,4.6,5.7l-26.1,41.7c-1.4-2.1-3.3-5.1-4.7-7
		c-1.4-1.8-4.4-5.1-6-6.8c2.8-4.5,4.5-7.3,7.7-12.1l-6-7.7c-5.3,1.4-9.2,2.5-13.7,4.1c-0.7-1.1-2.4-3.8-3.2-4.8s-3.8-4.3-4.6-5.3
		L405.3,0h-31.7l-7.1,8.6c-1.9-1.7-3.6-3.4-5.5-5c-1.6-1.3-3.2-2.5-4.8-3.6H335c45.3,27,75.6,76.4,75.6,132.9
		c0,19.3-3.3,37.8-9.8,54.9h72.1c4.4-17.5,6.9-35.9,6.9-54.8C479.8,83.2,463.6,37.2,436.1,0z M464,95.5c-0.9,0.1-2.6,0.3-3.4,0.5
		c-0.9,0.2-2.4,0.8-3.3,1.2c-0.5-4-0.5-6.5-2.3-12.9l-11.3,2.8l1.3,5c0.7,2.9,1.6,5.4,2.5,7.7c-0.9,0.1-3.2,0.5-4,0.7
		c-0.9,0.2-3.4,1.1-4.3,1.4c-0.3-2.4-0.7-5.1-1.4-8l-1.2-5L424.1,92c1.7,6.5,2.3,9.2,3.8,13c-0.9,0.1-2.5,0.3-3.4,0.5
		c-0.9,0.2-2.8,0.9-3.7,1.3L413.6,78l43.5-10.9L464,95.5z M409.7,66.3c-1.2-3.2-5.7-11.1-7.3-13.5l33.4-18.2c0,0-5.8-9.4-6.1-9.7
		c0.7-0.1,6-3.1,6.5-3.6l18.7,33.6c-0.7,0.2-6,3-6.5,3.5c-0.2-0.5-4.8-10.4-4.8-10.4L409.7,66.3z M439.3,175.2
		c-3.6,2.7-7.8,3.8-13.5,3.8c-3.5,0-9.5-1.2-12-5.2c-2-3.2-2.5-5.4-2.4-8.6h8.9c0.2,5,0.8,9.2,5.4,9.2c5.7,0,8-5.1,8-10.9
		c0-2.6,0.1-5.6-1.5-7.7c-1.5-1.8-3.1-2.7-6.3-2.7c-3.5,0-5.7,1.8-7.4,3.5l-3.6-2.5c0.9-18.2-1.1-25.3-0.3-25.5
		c1.2,0,16.1,1.1,27.3-0.4c0.8-0.1,0.3,3.9,0.3,5.4s1,5.8-0.4,5.4c-8.7-1.6-19.5-0.3-19.5-0.3l-0.4,9.9l0.5,0.2
		c2.2-1.2,6-1.5,8.5-1.5c2.7,0,7.1,1.1,10.1,4.2c3.2,3.3,4.3,6.8,4.3,11C445.2,167.6,443.3,172.3,439.3,175.2z M459.7,178.2
		c0,0-6.6-0.8-13.3,0.2v-0.1c1.5-2.4,22.8-39.3,22.8-39.3c0.1-0.2-0.1-0.5-0.3-0.5c-8.1-0.5-12.2-0.1-20.7,0.6
		c-1.3,0.4-0.1-2.8-0.3-6c-0.1-1.6,0-3.1-0.2-4.8c8.4,0.8,29.1,0,29.1,0l1.3,5.9C466.9,152.3,461.4,171.5,459.7,178.2z"/>
	<path class="st0" d="M200.7,139.3l2.5,7.5l4.4-1c1.6-5.5,3.6-11.8,4.9-15.9c-0.1-0.1-0.7-0.1-1.2,0.1c-0.7,0.1-1.2,0.2-1.7,0.4
		c0,0-1.5,5.5-2.5,9.2c-0.2,0.8-0.2,0.6-0.3,0.3l-2.1-8.5c-0.7,0.1-1.2,0.1-2.7,0.4c-0.9,0.2-2.4,0.7-2.4,0.7
		c-1.2,4.8-1.7,6.3-2.8,9.9c-0.2,0.5-0.2,0.6-0.4,0.1l-2.9-9c-0.8,0-1.3,0.1-2.9,0.5c-1.5,0.4-2.6,0.7-2.6,0.7
		c1.7,5.6,3.4,10.1,5.3,15.2l3.7-1.2c1.1-3.8,1.9-6.1,3-9.4C200.1,138.9,200.5,138.9,200.7,139.3z"/>
	<polygon class="st0" points="408.9,9.3 397,13.2 401.6,19.2 	"/>
	<path class="st0" d="M397.3,196.1c-2.9,6.5-6.3,12.8-10.1,18.9h18.3l-1.9-2.8c0.8-1,2.7-4.1,3.5-5.2c0.7-1,2.9-4.6,3.5-5.7
		c2.4,5.1,4.7,9.5,7,13.7h46.5c2.4-6.2,4.6-12.4,6.5-18.9H397.3z"/>
	<path class="st0" d="M256.5,213C256.5,213,256.5,213,256.5,213C256.4,213.1,256.4,213.1,256.5,213z"/>
	<path class="st0" d="M266.9,163.9c-5.3,1.7-7.8,5.9-8,10c-0.3,4.8,1.2,9.3,7,7.8c4.1-1.1,5.6-2.9,7.3-5.1v-2.2
		c-1.1,1.2-3.3,3.4-5.6,3.4c-4.7,0-3.4-3.9-3.4-3.9c3.7-1.5,4.4-1.7,9.8-3.8C274.3,165.9,272.9,161.9,266.9,163.9z M268.9,169.8
		c0,0-2.6,1-3.3,1.3c-1.2,0.6-1.5,0.5-1.4-1.2c0.1-0.9,0.2-3.6,2.3-4.3C268.3,165,269.4,167.6,268.9,169.8z"/>
	<path class="st0" d="M305.8,69h-2.2l-1.7-69H289l-2.8,54.6l-3.1-0.1L283.3,0h-25.8c-3.9,8.4-3.8,19-3.8,19
		c0.3-4.6,9.5-11.3,12.4-11.3c0,0,0.1,13.8,6.8,20.4c10.5,10.3,5.6,22.1,3.1,26.6h-19c3.6-5,1.7-11.4-2.2-15.1
		c-5.3-5-4.4-13.2-3.9-15.4c-9.1,4.2-13.2,20.9-5.8,30.5h-15.5c-3.8-3.5-5.4-9.2-5.6-14.5c0-4,1.1-7.9,2.1-10.7L226,0h-13.2l-2,69.1
		h-2.5l-1-69.1h-13.2l-2.2,69.1H188l-1.1-66c-3.7,2.1-7.4,4.2-11,6.5L172,69.2h-4.5l-1.2-52.7c-2.4,1.9-4.9,3.9-7.2,5.9H159
		l-3.9,46.8h-8.3l-0.7-33.9c-3.3,3.7-6.6,7.6-9.5,11.7l0.1,22.1h-13.3c-9.3,19.4-14.6,41-14.6,63.9c0,30.3,9.2,58.5,24.9,82h0.9v-97
		h10.9v97h14c15-8.8,63.9-35.5,97.4-6.8c33.4-28.8,82.4-2,97.4,6.8h13.2l0.1-97h11v96.7c15.7-23.4,24.8-51.6,24.8-81.8
		c0-23-5.4-44.6-14.8-63.9l-10.9,0.1l0.1-18.5c-2.1-3-4.2-6.1-6.5-9l-1.6,27.5h-7.8l-0.7-38.9c-3-3.1-6.1-6.2-9.4-9l-3.6,47.9h-5.5
		l-1.1-55.8c-3.5-2.5-7.1-5-10.8-7.2l-4,62.9h-3.3L322,1.3c-0.9-0.5-1.8-0.9-2.7-1.3H310L305.8,69z M226.7,60.2c0,0,15.1,0,30,0
		c14.9,0,30,0,30,0c4.3,0.2,4.1,8.9-0.7,8.7l-4.4,0.1l-0.7,7.2c-2,0.3-3.8,0.7-5.5,1.1v-8.5h-3.2v9.4c-1.5,0.5-2.8,1-4.1,1.5V68.8
		h-3.2v12.4c-5.6,2.9-8.3,5.7-8.3,5.7s-2.7-2.9-8.3-5.7V68.8h-3.2v10.9c-1.3-0.5-2.5-0.9-4-1.4l-0.1-9.5h-3.2v8.5
		c-1.6-0.4-3.5-0.8-5.4-1.1l-0.6-7.2l-4.4-0.1C222.6,69.1,222.4,60.4,226.7,60.2z M332.9,92.2c11.6,0.4,23.8-2.5,23.8-2.5v114.2
		c0,0-9.5-2.4-15.8-4.9c-26.9-10.7-52.7-10.8-62.7-8c-10,2.9-21.3,10.4-21.3,10.4s-11.3-7.5-21.3-10.4c-10-2.8-35.8-2.7-62.7,8
		c-6.3,2.5-15.6,4.6-15.6,4.6l-0.2-113.9c0,0,12.1,2.9,23.7,2.5c14.7-0.4,37.3-14,59.2-6.9c8.3,2.7,15.1,7.3,17,8.5
		c1.9-1.3,8.7-5.9,16.7-8.5C295.6,78.1,318.2,91.7,332.9,92.2z"/>
	<path class="st0" d="M256.5,212.9C256.5,213,256.5,213,256.5,212.9c1.9-1.1,24.7-17.9,53.3,2.1h17.9
		C300.1,193.7,271.4,197.6,256.5,212.9z"/>
	<path class="st0" d="M256.5,213C256.5,213,256.5,213,256.5,213C256.6,213.1,256.6,213.1,256.5,213z"/>
	<path class="st0" d="M39,187.7h72.3c-6.5-17-10.1-35.5-10.1-54.8c0-56.6,30.3-106,75.6-132.9h-19.8c-0.4,0.3-0.8,0.5-0.9,0.6
		c-0.7,0.5-4.5,3.4-4.5,3.4c-0.9-1.5-1.6-2.8-2.3-4h-16.1l10.6,10.3c-2,1.8-4,3.6-5.9,5.5c-1.9,1.9-3.6,4-5.4,6L110,0H75.8
		C48.4,37.2,32.1,83.2,32.1,132.9C32.1,151.8,34.5,170.2,39,187.7z M81.1,178.8c-4.3,0-8.8-0.9-12.3-3.4c-3.4-2.5-5.1-6.8-5.1-10.9
		c0-6.1,4-13,10.3-14.1v-0.5c-4.8-0.9-8.5-4.4-8.5-9.3c0-8.7,8.1-14.3,15.6-14.3c4.1,0,7.5,0.4,10.9,2.7c3.2,2.2,4.8,6.9,4.8,10.9
		c0,5.4-3.2,8.5-8.5,9.9v0.5c7.3,0.6,10.1,7,10.1,13.1C98.5,173,90.8,178.8,81.1,178.8z M79.6,15.5c1.6-2.2,3-4.4,4.5-6.7l32.3,23.8
		c5.5-7.5,3.8-5.9,7.7-12.1c0.6,0.7,1.7,1.5,2.4,2c0.8,0.5,2.5,1.6,2.5,1.6c-7,7.8-12.8,15.8-18,24.5L74.6,21.8
		C76.3,19.7,78,17.7,79.6,15.5z M58.6,56.3c1-2.5,1.9-5,2.8-7.5l37,15.6c3.6-8.6,2.3-6.6,4.7-13.5c0.8,0.6,2,1.1,2.8,1.4
		c0.9,0.4,2.8,1,2.8,1c-5,9.2-8.8,18.3-11.8,27.9L55.2,63.6C56.4,61.2,57.6,58.8,58.6,56.3z M49.2,90.2c0.5-2.6,1-5.1,1.4-7.8
		l44.7,9.2c-0.7,2.6-1.4,5.2-1.9,7.8c-0.5,2.6-0.9,5.3-1.3,7.9l-44.6-9.2C48,95.6,48.6,92.8,49.2,90.2z M58.2,127
		c0.6-0.3,0.9,0,0.9,0.4c-0.1,1.1-0.1,51.1-0.1,51.1c-1.9-0.2-4.6-0.2-6.1-0.2c-1.4,0-4.2,0-6.1,0.2v-38.7c-3.2,1.8-5.3,3.4-7.6,5.2
		c0,0-3-4-4.1-5.1v-0.6C42.6,136.9,56.7,127.7,58.2,127z"/>
	<path class="st0" d="M81.2,147.9c4.1,0,4.7-4.5,4.7-7.8c0-3.5-0.5-8.3-4.7-8.3s-4.7,4.7-4.7,8.3C76.5,143.4,77.1,147.9,81.2,147.9z
		"/>
	<path class="st0" d="M79.1,153.8c-3.1,1.4-3,7.2-3,10.3c0,3.6,0.3,9.3,5,9.3c4.4,0,5.2-5.7,5.2-9.2c0-2.2,0-6.9-1.1-8.7
		C83.8,153.3,81.4,152.6,79.1,153.8z"/>
	<path class="st0" d="M245.1,2.2V0h-15.9l-0.1,22.5c3.1-7.5,10.2-14.9,10.2-14.9C240.9,5.9,243.4,3.6,245.1,2.2z"/>
	<path class="st0" d="M247.7,0v0.9c0.4-0.3,0.8-0.6,1.2-0.9H247.7z"/>
	<path class="st0" d="M185.3,215h17.9c28.5-20,51.4-3.1,53.2-2c0,0,0,0,0,0C241.6,197.6,212.9,193.7,185.3,215z"/>
	<path class="st0" d="M80.3,213.7l23.5-13.6c0.8,1.6,2.9,5.3,3.8,6.9c0.9,1.6,3,5.2,4,6.7l-2.3,1.3h15.4c-3.8-6.1-7.2-12.4-10.1-19
		H41.3c1.9,6.4,4.1,12.8,6.5,19h30.5C79,214.5,79.6,214.1,80.3,213.7z"/>
	<path class="st0" d="M291.1,170.5l0.1-6.5c0-0.2,0-0.4,0-0.6c0-3.2-2-5.1-5.7-4.8c-3.4,0.3-5.5,2.7-6,3.9c-0.1,0.4-0.4,1.2-0.3,1.8
		h1.6c0.3-1,1-2.9,3.4-2.9c1.5,0,2.2,0.7,2.2,2.3c0.1,0.6,0.1,1.4-0.4,1.4c-1,0.5-2,0.8-2.8,1.1c-3.4,1.2-5.6,3.3-5.5,6.6
		c0.1,1.4,0.6,3.3,4.6,3.2c2.1-0.1,3.7-1.4,4-1.8c0.3-0.4,0.5-0.6,0.6-0.3c0.1,0.3,1.8,0.8,2.7,0.8c2.6,0,3.8-1.4,3.8-2.1l-0.2-0.3
		C291,172.5,291.1,171.7,291.1,170.5z M286.3,169.8c-0.2,1.6-0.6,2.6-2.4,2.9c-1.1,0.2-1.6-0.7-1.5-1.8c0.1-1.8,1.3-2.9,1.9-3.2
		C286.4,166.5,286.5,167.4,286.3,169.8z"/>
	<path class="st0" d="M278.9,146.6c0.6,0.2,1.1,0.4,3,0.2c2.8-0.3,3.8-1.6,3.8-2.4l-0.4-0.4c-0.1,0-2.2,1.2-2.2-0.9l0.2-6.9
		c0-3.3-2-5.1-5.7-4.8c-3.4,0.3-5.5,2.7-6,3.9c-0.2,0.4-0.5,1.3-0.4,1.8h1.6c0.3-1,1-2.9,3.4-2.9c1.5,0,2.2,0.7,2.2,2.3
		c0,0.4,0.2,1.1-0.3,1.3c-0.9,0.4-3.3,1.8-3.6,2c-3.6,2.2-4.5,3.3-4.6,6.3c-0.1,2.6,1.8,3.6,4.4,3c1.6-0.5,2.3-0.6,3.8-2.2
		C278.1,146.9,278.5,146.4,278.9,146.6z M276.1,145.7c-0.9,0.2-1.5-0.2-1.6-1.4c-0.3-2,0.8-3.1,1.7-3.8c1.9-1.6,2.1-2,2.3,1.8
		C278.5,144.1,277.7,145.4,276.1,145.7z"/>
	<path class="st0" d="M305.4,172.6c-3.2-0.8-4.5-2.9-4.6-6.3c0.1-2.8,0.8-5.9,3.7-5.9c3,0,4,2.3,4,3.4l0.8,0.2l0.4-4
		c-1.5-1.2-3.4-2-6.2-2.2c-5.1-0.4-7.8,3.5-7.8,8.7c0,4.7,3.3,7.9,8.7,8.3c1.7,0.1,4.1-0.3,5.2-0.9l0.3-1.6
		C309.1,172.9,306.7,172.9,305.4,172.6z"/>
	<path class="st0" d="M292.1,145c0.8-0.2,1.7-0.2,2.7-0.2l-0.2-6.2c0-1-0.1-2.8,0.2-3.7c0.4-1.4,1-2,2.4-2c0.7,0,1.5,0,1.9,0.3
		l0.3-0.3c0.1-1.8,0.3-3.3,0.5-4.8c-3,0-4.6,1.4-5.1,3.2c-0.3,0.7-0.5,0.7-0.6,0.2v-2.8c-0.7,0-1.7,0.1-2.6,0.2
		c-0.7,0.1-1.5,0.2-2.3,0.2l0.2,16.4C290.3,145.4,291.2,145.1,292.1,145z"/>
	<path class="st0" d="M283.3,90.9v24.5c0.9-0.1,1.7-0.6,2.5-0.6s1.6-0.4,2.4-0.3v-24c-0.8,0.1-1.7,0.1-2.5,0.1S284.1,91,283.3,90.9z
		"/>
	<path class="st0" d="M294.1,122.7c0,0,1.2-0.2,1.7-0.2s1.5-0.1,2,0c2.1-5.7,3.5-8.9,5.9-14.3l4.6-9.5c-0.9-0.1-2-0.2-2.5-0.2
		c-0.1,0-0.3-0.1-1.1-0.1l-2.9,7.5c-0.7,1.3-0.7,0.4-1.3-0.5c0,0-1.7-5.1-2.5-7.4c0,0-2-0.1-2.8-0.1s-2.2-0.1-3,0.2l6.4,15.5
		L294.1,122.7z"/>
	<path class="st0" d="M305.7,128.7c-0.7-0.2-2.5-0.6-2.5-0.4c0.3,6.2,0.3,12.8-0.1,16.5c0.8,0.1,1.5-0.2,2.3,0c0.7,0.1,2,0.3,3,0.6
		l-0.1-7.4c0-2.1,0-5.5,2.8-5.3c2.4,0.1,2.3,3.6,2.3,6.6l-0.1,7.3c0.9,0.2,1.7,0.3,2.5,0.5s1.6,0.4,2.5,0.7l-0.1-9.9
		c0-4.1-1.3-6.8-3-7.4c-4.1-1.3-5.3-0.5-6.9,0.6v-1.8C307.3,129,307,129,305.7,128.7z"/>
	<path class="st0" d="M314.3,150.9v24.8c0.7-0.1,1.6,0.3,2.3,0.3c0.8,0,2,0.7,2.8,0.8v-7.6c0-2-0.1-4.6,2-4.5c3.2,0,2.7,3.6,2.7,6.6
		v7.4c1,0,1.8,0.2,2.5,0.4c0.9,0.3,1.8,0.6,2.9,0.9v-11.1c0-1.6-0.4-2.8-1.4-4.1c-1-1.4-2.7-3.2-5.5-3.2c-2.1,0.1-2.5,0.9-2.7,1.1
		c-0.2,0.2-0.4,0.4-0.4-0.2c0.1-0.6,0-8.4,0-10.5c-1.3-0.2-1.8-0.6-2.6-0.7C315.9,151.1,315,151,314.3,150.9z"/>
</g>
</svg>
