<svg focusable="false" xmlns="http://www.w3.org/2000/svg" viewBox="0 0 512 512" style="enable-background:new 0 0 512 512;">
<style type="text/css">
	.st0{fill:#CC0000;}
</style>
<g>
	<path class="st0" d="M256,0C115.3,0,0.8,114.8,0.8,256S115.3,512,256,512s255.2-114.8,255.2-256S396.7,0,256,0z M256,493.2
		C125.6,493.2,19.6,386.8,19.6,256S125.6,18.9,256,18.9S492.4,125.2,492.4,256S386.4,493.2,256,493.2z"/>
	<path class="st0" d="M256,47.8C141.5,47.8,48.4,141.2,48.4,256S141.5,464.2,256,464.2S463.6,370.8,463.6,256S370.5,47.8,256,47.8z
		 M221.7,120c4.7-9.8,11.8-18.2,19.7-25.7c1.1-1,2.3-2,3.4-3.1c4.3-3.8,9.1-7,14.3-9.5c0.5-0.3,10.4-3.7,7.9-0.3
		c-9.6,13.1-9.2,35.1-9.2,35.1c0.3-7,14.3-17.1,18.7-17.1c0,0,0.2,21,10.2,31c15.8,15.7,8.5,33.6,4.6,40.5h-28.7
		c5.6-7.5,2.6-17.4-3.3-23c-7.9-7.5-6.8-20-5.9-23.3c-13.9,6.4-20.1,31.7-8.9,46.2H221c-5.7-5.3-8.1-13.9-8.5-22
		C212.4,138.4,217.3,129.1,221.7,120z M104.9,363.7l-0.1-162.3c22.1,22.1,61.6-1.1,61.6-1.1c45.4-26.6,77.6,3.9,77.6,3.9v147.6
		C178.8,297.8,104.9,363.7,104.9,363.7z M267.4,423.5c0,0-4.7,8.7-11.4,8.6c-7.8-0.1-11.4-8.6-11.4-8.6l-5.1-63.7h32.9L267.4,423.5z
		 M267.8,351.7V204.2c0,0,32.2-30.5,77.6-3.9c0,0,39.6,23.2,61.6,1.1v162.3C407.1,363.7,333.3,297.8,267.8,351.7z"/>
</g>
</svg>
